<svg width="16" height="17" viewBox="0 0 16 17" fill="none" xmlns="http://www.w3.org/2000/svg">
<path d="M11.9023 7.22599C14.1541 5.43768 18.753 -1.00638 11.5534 0.134436C8.4134 0.596929 3.81456 3.55688 2.89478 6.97933C2.41903 6.05434 1.87986 5.19102 1.30896 4.3277C0.420896 3.15606 -0.562314 4.08104 0.38918 5.25269C3.20973 8.57248 4.83594 12.698 5.01978 17C5.2418 14.9342 4.89291 12.4059 4.03657 9.93928C4.44888 10.0626 4.92463 10.1243 5.33694 10.1243C6.7959 12.4676 9.04779 14.4717 11.5534 15.3967C13.8687 16.2909 16.9452 15.7666 15.6765 12.1593C15.0104 10.1859 13.4564 8.45928 11.9023 7.22599ZM12.2194 0.966921C16.2157 0.535263 11.934 5.37602 10.5384 6.27017C9.23808 5.43768 7.58881 4.69769 6.00299 4.91352C7.14478 3.46438 9.93582 1.24442 12.2194 0.966921ZM5.97128 5.96185C7.04963 5.86934 8.22311 6.45517 9.14293 7.07183C8.25482 7.50348 7.30336 7.75014 6.32015 7.84264C4.8612 7.84264 4.54404 6.08517 5.97128 5.96185ZM11.49 13.4851C9.61866 12.9609 7.84255 11.4809 6.57388 10.0009C7.62053 9.78512 8.6672 9.38431 9.61866 8.82926C9.96753 8.6751 10.3164 8.42845 10.6336 8.21262C11.7437 9.19932 12.9171 10.5251 13.3612 12.0359C13.8053 13.6701 12.6 13.7934 11.49 13.4851Z" fill="#F5A623"/>
</svg>
